name ./resultDataOpenSim/trcMotMarkerGrf/sub06/grf-03-03.mot
datacolumns 19
datarows 22
range 0.98800000 1.07200000
endheader

                time	     ground_force_vx	     ground_force_vy	     ground_force_vz	     ground_force_px	     ground_force_py	     ground_force_pz	   l_ground_force_vx	   l_ground_force_vy	   l_ground_force_vz	   l_ground_force_px	   l_ground_force_py	   l_ground_force_pz	     ground_torque_x	     ground_torque_y	     ground_torque_z	   l_ground_torque_x	   l_ground_torque_y	   l_ground_torque_z	
          0.98800000	          0.00000000	          0.00000000	          0.00000000	          0.00000000	          0.00000000	          0.00000000	         97.82922162	        634.82748985	         31.97370668	          0.04550740	         -0.05000000	         -0.01541424	          0.00000000	          0.00000000	          0.00000000	          0.00000000	         -2.46049196	          0.00000000	
          0.99200000	          0.00000000	          0.00000000	          0.00000000	          0.00000000	          0.00000000	          0.00000000	        104.26452207	        654.95780547	         32.78382064	          0.04593713	         -0.05000000	         -0.01518059	          0.00000000	          0.00000000	          0.00000000	          0.00000000	         -2.54266331	          0.00000000	
          0.99600000	          0.00000000	          0.00000000	          0.00000000	          0.00000000	          0.00000000	          0.00000000	        110.91961504	        674.21795514	         33.25999838	          0.04639717	         -0.05000000	         -0.01488345	          0.00000000	          0.00000000	          0.00000000	          0.00000000	         -2.63446190	          0.00000000	
          1.00000000	          0.00000000	          0.00000000	          0.00000000	          0.00000000	          0.00000000	          0.00000000	        117.80222828	        692.25065039	         33.43482778	          0.04688064	         -0.05000000	         -0.01455709	          0.00000000	          0.00000000	          0.00000000	          0.00000000	         -2.73346142	          0.00000000	
          1.00400000	          0.00000000	          0.00000000	          0.00000000	          0.00000000	          0.00000000	          0.00000000	        124.90618428	        708.77522535	         33.36233388	          0.04738955	         -0.05000000	         -0.01422535	          0.00000000	          0.00000000	          0.00000000	          0.00000000	         -2.83608088	          0.00000000	
          1.00800000	          0.00000000	          0.00000000	          0.00000000	          0.00000000	          0.00000000	          0.00000000	        132.20216731	        723.58623271	         33.09344334	          0.04792354	         -0.05000000	         -0.01389278	          0.00000000	          0.00000000	          0.00000000	          0.00000000	         -2.93806186	          0.00000000	
          1.01200000	          0.00000000	          0.00000000	          0.00000000	          0.00000000	          0.00000000	          0.00000000	        139.62734648	        736.49852815	         32.67395566	          0.04851260	         -0.05000000	         -0.01354495	          0.00000000	          0.00000000	          0.00000000	          0.00000000	         -3.03511474	          0.00000000	
          1.01600000	          0.00000000	          0.00000000	          0.00000000	          0.00000000	          0.00000000	          0.00000000	        147.08612979	        747.34236781	         32.14712446	          0.04918874	         -0.05000000	         -0.01316335	          0.00000000	          0.00000000	          0.00000000	          0.00000000	         -3.12347412	          0.00000000	
          1.02000000	          0.00000000	          0.00000000	          0.00000000	          0.00000000	          0.00000000	          0.00000000	        154.47241947	        755.99574603	         31.55187080	          0.04996635	         -0.05000000	         -0.01273574	          0.00000000	          0.00000000	          0.00000000	          0.00000000	         -3.20019893	          0.00000000	
          1.02400000	          0.00000000	          0.00000000	          0.00000000	          0.00000000	          0.00000000	          0.00000000	        161.69972422	        762.38080358	         30.91667293	          0.05083681	         -0.05000000	         -0.01226256	          0.00000000	          0.00000000	          0.00000000	          0.00000000	         -3.26321884	          0.00000000	
          1.02800000	          0.00000000	          0.00000000	          0.00000000	          0.00000000	          0.00000000	          0.00000000	        168.71270682	        766.43145264	         30.24919375	          0.05175673	         -0.05000000	         -0.01176661	          0.00000000	          0.00000000	          0.00000000	          0.00000000	         -3.31121079	          0.00000000	
          1.03200000	          0.00000000	          0.00000000	          0.00000000	          0.00000000	          0.00000000	          0.00000000	        175.46538887	        768.06835339	         29.53039522	          0.05266410	         -0.05000000	         -0.01127867	          0.00000000	          0.00000000	          0.00000000	          0.00000000	         -3.34339297	          0.00000000	
          1.03600000	          0.00000000	          0.00000000	          0.00000000	          0.00000000	          0.00000000	          0.00000000	        181.89637700	        767.20800825	         28.72416188	          0.05350408	         -0.05000000	         -0.01082209	          0.00000000	          0.00000000	          0.00000000	          0.00000000	         -3.35931645	          0.00000000	
          1.04000000	          0.00000000	          0.00000000	          0.00000000	          0.00000000	          0.00000000	          0.00000000	        187.93606129	        763.79845896	         27.80257867	          0.05423755	         -0.05000000	         -0.01041055	          0.00000000	          0.00000000	          0.00000000	          0.00000000	         -3.35872881	          0.00000000	
          1.04400000	          0.00000000	          0.00000000	          0.00000000	          0.00000000	          0.00000000	          0.00000000	        193.52056489	        757.79834256	         26.76723377	          0.05484895	         -0.05000000	         -0.01004592	          0.00000000	          0.00000000	          0.00000000	          0.00000000	         -3.34153881	          0.00000000	
          1.04800000	          0.00000000	          0.00000000	          0.00000000	          0.00000000	          0.00000000	          0.00000000	        198.58032636	        749.07887733	         25.64004769	          0.05535880	         -0.05000000	         -0.00971484	          0.00000000	          0.00000000	          0.00000000	          0.00000000	         -3.30782371	          0.00000000	
          1.05200000	          0.00000000	          0.00000000	          0.00000000	          0.00000000	          0.00000000	          0.00000000	        203.01849475	        737.37201833	         24.42598266	          0.05582120	         -0.05000000	         -0.00940043	          0.00000000	          0.00000000	          0.00000000	          0.00000000	         -3.25775905	          0.00000000	
          1.05600000	          0.00000000	          0.00000000	          0.00000000	          0.00000000	          0.00000000	          0.00000000	        206.70073747	        722.32732386	         23.08491301	          0.05630221	         -0.05000000	         -0.00909462	          0.00000000	          0.00000000	          0.00000000	          0.00000000	         -3.19139629	          0.00000000	
          1.06000000	          0.00000000	          0.00000000	          0.00000000	          0.00000000	          0.00000000	          0.00000000	        209.45739798	        703.58558021	         21.54316159	          0.05684147	         -0.05000000	         -0.00880441	          0.00000000	          0.00000000	          0.00000000	          0.00000000	         -3.10836357	          0.00000000	
          1.06400000	          0.00000000	          0.00000000	          0.00000000	          0.00000000	          0.00000000	          0.00000000	        211.08042366	        680.80464400	         19.73601190	          0.05744538	         -0.05000000	         -0.00854544	          0.00000000	          0.00000000	          0.00000000	          0.00000000	         -3.00769182	          0.00000000	
          1.06800000	          0.00000000	          0.00000000	          0.00000000	          0.00000000	          0.00000000	          0.00000000	        211.30065922	        653.67454560	         17.64414452	          0.05811906	         -0.05000000	         -0.00832455	          0.00000000	          0.00000000	          0.00000000	          0.00000000	         -2.88792083	          0.00000000	
          1.07200000	         -4.38963019	         59.02888135	          4.45290674	          0.71452969	          0.00000000	          0.11069664	        209.76666167	        621.95493649	         15.30153969	          0.05887081	         -0.05000000	         -0.00813761	          0.00000000	          0.23875244	          0.00000000	          0.00000000	         -2.74744409	          0.00000000	
